# xmcd
#
# Track frame offsets:
# 150
# 11378
# 23723
# 36553
# 46485
# 59455
# 72133
# 84890
# 97510
# 109903
# 123258
# 133328
# 144390
# 157093
# 168793
# 182578
# 193578
# 204470
# 217320
#
# Disc length: 3066 seconds
#
#
# Revision: 2
# Processed by: cddbd v1.5.1PL0 Copyright (c) Steve Scherf et al.
# Submitted via: FreeRIP 2.80 
#
DISCID=080bf813
DTITLE=ROY ORBISON - In Dreams: The Greatest Hits
DYEAR=1900
DGENRE=
TTITLE0=ROY ORBISON - Only The Lonely
TTITLE1=ROY ORBISON - Leah
TTITLE2=ROY ORBISON - In Dreams
TTITLE3=ROY ORBISON - Uptown
TTITLE4=ROY ORBISON - It's Over
TTITLE5=ROY ORBISON - Crying
TTITLE6=ROY ORBISON - Dream Baby
TTITLE7=ROY ORBISON - Blue Angel
TTITLE8=ROY ORBISON - Working For The Man
TTITLE9=ROY ORBISON - Candy Man
TTITLE10=ROY ORBISON - Running Scared
TTITLE11=ROY ORBISON - Falling
TTITLE12=ROY ORBISON - I'm Hurtin'
TTITLE13=ROY ORBISON - Claudette
TTITLE14=ROY ORBISON - Oh Pretty Woman
TTITLE15=ROY ORBISON - Mean Woman Blues
TTITLE16=ROY ORBISON - Ooby Dooby
TTITLE17=ROY ORBISON - Lana
TTITLE18=ROY ORBISON - Blue Bayou
EXTD=
EXTT0=
EXTT1=
EXTT2=
EXTT3=
EXTT4=
EXTT5=
EXTT6=
EXTT7=
EXTT8=
EXTT9=
EXTT10=
EXTT11=
EXTT12=
EXTT13=
EXTT14=
EXTT15=
EXTT16=
EXTT17=
EXTT18=
PLAYORDER=
